# Blender 4.3.2
# www.blender.org
mtllib untitled.mtl
o Cube
v 1.381153 1.988610 -1.694619
v 1.620763 -1.988610 -1.988610
v 1.381153 1.988610 1.694619
v 1.620763 -1.988610 1.988610
v -1.381153 1.988610 -1.694619
v -1.620763 -1.988610 -1.988610
v -1.381153 1.988610 1.694619
v -1.620763 -1.988610 1.988610
v -1.620763 -1.988610 -1.193166
v -1.620763 -1.988610 -0.397722
v -1.620763 -1.988610 0.397722
v -1.620763 -1.988610 1.193166
v 1.381153 1.988610 -1.016771
v 1.381153 1.988610 -0.338924
v 1.381153 1.988610 0.338924
v 1.381153 1.988610 1.016771
v -1.381153 1.988610 1.016771
v -1.381153 1.988610 0.338924
v -1.381153 1.988610 -0.338924
v -1.381153 1.988610 -1.016771
v 1.620763 -1.988610 1.193166
v 1.620763 -1.988610 0.397722
v 1.620763 -1.988610 -0.397722
v 1.620763 -1.988610 -1.193166
v 1.482131 0.312499 -1.818515
v -1.482131 0.312499 1.818515
v 1.482131 0.312499 1.818515
v -1.482131 0.312499 -1.818515
v 1.482131 0.312499 -1.091109
v 1.482131 0.312499 -0.363703
v 1.482131 0.312499 0.363703
v 1.482131 0.312499 1.091109
v -1.482131 0.312499 1.091109
v -1.482131 0.312499 0.363703
v -1.482131 0.312499 -0.363703
v -1.482131 0.312499 -1.091109
v -1.789535 -1.888912 -0.306943
v -1.789535 -1.888912 0.306943
v -1.661652 0.233784 0.275562
v -1.661652 0.233784 -0.275562
v -1.794909 -1.978119 -0.397722
v -1.794909 -1.978119 0.397722
v -1.656278 0.322991 0.363703
v -1.656278 0.322991 -0.363703
v -1.523795 -1.904922 -0.306943
v -1.523795 -1.904922 0.306943
v -1.395912 0.217775 0.275562
v -1.395912 0.217775 -0.275562
vn -0.0000 1.0000 -0.0000
vn -0.0000 0.0737 0.9973
vn -0.9982 0.0601 -0.0000
vn -0.0000 -1.0000 -0.0000
vn 0.9982 0.0601 -0.0000
vn -0.0000 0.0737 -0.9973
vn 0.0009 0.0147 0.9999
vn -0.0009 -0.0147 0.9999
vn 0.0601 0.9982 -0.0000
vn 0.0009 0.0147 -0.9999
vn -0.0601 -0.9982 -0.0000
vn -0.0009 -0.0147 -0.9999
vt 0.625000 0.700000
vt 0.875000 0.700000
vt 0.875000 0.750000
vt 0.625000 0.750000
vt 0.519643 0.750000
vt 0.625000 1.000000
vt 0.519643 1.000000
vt 0.519643 0.200000
vt 0.625000 0.200000
vt 0.625000 0.250000
vt 0.519643 0.250000
vt 0.125000 0.700000
vt 0.375000 0.700000
vt 0.375000 0.750000
vt 0.125000 0.750000
vt 0.519643 0.700000
vt 0.625000 0.500000
vt 0.519643 0.500000
vt 0.625000 0.550000
vt 0.519643 0.550000
vt 0.625000 0.600000
vt 0.519643 0.600000
vt 0.625000 0.650000
vt 0.519643 0.650000
vt 0.125000 0.500000
vt 0.375000 0.500000
vt 0.375000 0.550000
vt 0.125000 0.550000
vt 0.375000 0.600000
vt 0.125000 0.600000
vt 0.375000 0.650000
vt 0.125000 0.650000
vt 0.519643 0.000000
vt 0.625000 0.000000
vt 0.625000 0.050000
vt 0.519643 0.050000
vt 0.625000 0.100000
vt 0.519643 0.100000
vt 0.625000 0.150000
vt 0.519643 0.150000
vt 0.875000 0.500000
vt 0.875000 0.550000
vt 0.875000 0.600000
vt 0.875000 0.650000
vt 0.375000 0.150000
vt 0.375000 0.200000
vt 0.375000 0.100000
vt 0.375000 0.050000
vt 0.375000 0.000000
vt 0.375000 0.250000
vt 0.375000 1.000000
vt 0.514036 0.143903
vt 0.380607 0.144330
vt 0.380607 0.105670
vt 0.514036 0.106097
s 0
usemtl Material
f 16/1/1 17/2/1 7/3/1 3/4/1
f 27/5/2 3/4/2 7/6/2 26/7/2
f 36/8/3 20/9/3 5/10/3 28/11/3
f 12/12/4 21/13/4 4/14/4 8/15/4
f 32/16/5 16/1/5 3/4/5 27/5/5
f 28/11/6 5/10/6 1/17/6 25/18/6
f 25/18/5 1/17/5 13/19/5 29/20/5
f 29/20/5 13/19/5 14/21/5 30/22/5
f 30/22/5 14/21/5 15/23/5 31/24/5
f 31/24/5 15/23/5 16/1/5 32/16/5
f 6/25/4 2/26/4 24/27/4 9/28/4
f 9/28/4 24/27/4 23/29/4 10/30/4
f 10/30/4 23/29/4 22/31/4 11/32/4
f 11/32/4 22/31/4 21/13/4 12/12/4
f 26/33/3 7/34/3 17/35/3 33/36/3
f 33/36/3 17/35/3 18/37/3 34/38/3
f 34/38/3 18/37/3 19/39/3 35/40/3
f 35/40/3 19/39/3 20/9/3 36/8/3
f 1/17/1 5/41/1 20/42/1 13/19/1
f 13/19/1 20/42/1 19/43/1 14/21/1
f 14/21/1 19/43/1 18/44/1 15/23/1
f 15/23/1 18/44/1 17/2/1 16/1/1
f 10/45/3 35/40/3 36/8/3 9/46/3
f 11/47/7 34/38/7 43/38/7 42/47/7
f 12/48/3 33/36/3 34/38/3 11/47/3
f 8/49/3 26/33/3 33/36/3 12/48/3
f 22/31/5 31/24/5 32/16/5 21/13/5
f 23/29/5 30/22/5 31/24/5 22/31/5
f 24/27/5 29/20/5 30/22/5 23/29/5
f 2/26/5 25/18/5 29/20/5 24/27/5
f 6/50/6 28/11/6 25/18/6 2/26/6
f 21/13/5 32/16/5 27/5/5 4/14/5
f 9/46/3 36/8/3 28/11/3 6/50/3
f 4/14/2 27/5/2 26/7/2 8/51/2
f 40/52/8 37/53/8 45/53/8 48/52/8
f 34/38/9 35/40/9 44/40/9 43/38/9
f 35/40/10 10/45/10 41/45/10 44/40/10
f 10/30/11 11/32/11 42/32/11 41/30/11
f 38/54/3 37/53/3 41/45/3 42/47/3
f 39/55/3 38/54/3 42/47/3 43/38/3
f 37/53/3 40/52/3 44/40/3 41/45/3
f 40/52/3 39/55/3 43/38/3 44/40/3
f 46/54/3 47/55/3 48/52/3 45/53/3
f 37/53/9 38/54/9 46/54/9 45/53/9
f 39/55/11 40/52/11 48/52/11 47/55/11
f 38/54/12 39/55/12 47/55/12 46/54/12
o Cube.001
v -2.369811 1.556429 2.369811
v -0.775991 3.484283 0.775991
v -2.369811 1.556429 -2.369811
v -0.775991 3.484283 -0.775991
v 2.369811 1.556429 2.369811
v 0.775991 3.484283 0.775991
v 2.369811 1.556429 -2.369811
v 0.775991 3.484283 -0.775991
vn -0.7707 0.6372 -0.0000
vn -0.0000 0.6372 -0.7707
vn 0.7707 0.6372 -0.0000
vn -0.0000 0.6372 0.7707
vn -0.0000 -1.0000 -0.0000
vn -0.0000 1.0000 -0.0000
vt 0.375000 0.000000
vt 0.625000 0.000000
vt 0.625000 0.250000
vt 0.375000 0.250000
vt 0.625000 0.500000
vt 0.375000 0.500000
vt 0.625000 0.750000
vt 0.375000 0.750000
vt 0.625000 1.000000
vt 0.375000 1.000000
vt 0.125000 0.500000
vt 0.125000 0.750000
vt 0.875000 0.500000
vt 0.875000 0.750000
s 0
f 49/56/13 50/57/13 52/58/13 51/59/13
f 51/59/14 52/58/14 56/60/14 55/61/14
f 55/61/15 56/60/15 54/62/15 53/63/15
f 53/63/16 54/62/16 50/64/16 49/65/16
f 51/66/17 55/61/17 53/63/17 49/67/17
f 56/60/18 52/68/18 50/69/18 54/62/18
